<svg xmlns="http://www.w3.org/2000/svg" viewBox="0 0 240 240" role="img">
<title>Original simulator schematic for Amplification Scroll</title>
<path fill="#fffaf0" stroke="none" d="M0 0H240V240H0Z"/>
<g fill="none" stroke="#7d1f1a" stroke-width="2.2" stroke-linecap="round" stroke-linejoin="round" vector-effect="non-scaling-stroke">
<circle cx="120" cy="120" r="104"/><circle cx="120" cy="120" r="68"/><circle cx="120" cy="120" r="34"/>
<line x1="105.6" y1="146.3" x2="91.3" y2="172.7"/><line x1="90.0" y1="120.7" x2="60.0" y2="121.5"/><line x1="104.4" y1="94.4" x2="88.7" y2="68.8"/><line x1="134.4" y1="93.7" x2="148.7" y2="67.3"/><line x1="150.0" y1="119.3" x2="180.0" y2="118.5"/><line x1="135.6" y1="145.6" x2="151.3" y2="171.2"/><polyline points="78.8,64.8 56.7,58.8 63.5,80.6"/><polyline points="137.4,53.4 128.4,32.4 115.5,51.3"/><polyline points="183.0,92.1 193.7,71.9 170.9,73.6"/><polyline points="181.1,151.8 203.5,147.6 188.0,130.9"/><polyline points="133.2,187.6 150.5,202.6 153.9,180.0"/><polyline points="75.4,172.5 74.5,195.3 94.2,183.9"/><polyline points="51.1,117.9 32.7,131.3 54.0,139.7"/><polygon points="120,89 130,108 152,111 136,127 140,150 120,139 100,150 104,127 88,111 110,108"/>
</g></svg>