<svg xmlns="http://www.w3.org/2000/svg" viewBox="0 0 240 240" role="img">
<title>Original simulator schematic for Beast Repellent</title>
<path fill="#fffaf0" stroke="none" d="M0 0H240V240H0Z"/>
<g fill="none" stroke="#7d1f1a" stroke-width="2.2" stroke-linecap="round" stroke-linejoin="round" vector-effect="non-scaling-stroke">
<circle cx="120" cy="120" r="104"/><circle cx="120" cy="120" r="73"/><circle cx="120" cy="120" r="34"/>
<line x1="148.1" y1="130.6" x2="180.8" y2="142.9"/><line x1="96.8" y1="139.0" x2="69.8" y2="161.2"/><line x1="115.1" y1="90.4" x2="109.4" y2="55.9"/><polyline points="167.8,169.0 188.4,175.3 177.9,156.5"/><polyline points="119.2,188.5 129.3,207.5 135.1,186.8"/><polyline points="71.0,167.8 64.7,188.4 83.5,177.9"/><polyline points="51.5,119.2 32.5,129.3 53.2,135.1"/><polyline points="72.2,71.0 51.6,64.7 62.1,83.5"/><polyline points="120.8,51.5 110.7,32.5 104.9,53.2"/><polyline points="169.0,72.2 175.3,51.6 156.5,62.1"/><polyline points="188.5,120.8 207.5,110.7 186.8,104.9"/><path d="M92 120 Q120 82 148 120 Q120 158 92 120 Z M106 120 Q120 104 134 120 Q120 136 106 120 Z"/>
</g></svg>