<svg xmlns="http://www.w3.org/2000/svg" viewBox="0 0 240 240" role="img">
<title>Original simulator schematic for Beldaruit's Illusion Cloak</title>
<path fill="#fffaf0" stroke="none" d="M0 0H240V240H0Z"/>
<g fill="none" stroke="#7d1f1a" stroke-width="2.2" stroke-linecap="round" stroke-linejoin="round" vector-effect="non-scaling-stroke">
<circle cx="120" cy="120" r="104"/><circle cx="120" cy="120" r="78"/><circle cx="120" cy="120" r="34"/>
<line x1="110.6" y1="148.5" x2="98.0" y2="186.5"/><line x1="91.5" y1="110.6" x2="53.5" y2="98.0"/><line x1="129.4" y1="91.5" x2="142.0" y2="53.5"/><line x1="148.5" y1="129.4" x2="186.5" y2="142.0"/><polyline points="61.9,83.6 40.0,83.4 54.4,99.9"/><polyline points="136.7,53.5 130.0,32.6 118.8,51.4"/><polyline points="188.4,115.3 206.2,102.5 184.9,97.7"/><polyline points="145.6,183.6 163.3,196.6 161.3,174.8"/><polyline points="67.4,164.0 60.5,184.8 80.7,176.2"/><path d="M120 88 L146 120 L120 152 L94 120 Z M120 100 L120 140 M104 120 L136 120"/>
</g></svg>