<svg xmlns="http://www.w3.org/2000/svg" viewBox="0 0 240 240" role="img">
<title>Original simulator schematic for Cloak Spell</title>
<path fill="#fffaf0" stroke="none" d="M0 0H240V240H0Z"/>
<g fill="none" stroke="#7d1f1a" stroke-width="2.2" stroke-linecap="round" stroke-linejoin="round" vector-effect="non-scaling-stroke">
<circle cx="120" cy="120" r="104"/><circle cx="120" cy="120" r="68"/><circle cx="120" cy="120" r="34"/>
<line x1="147.0" y1="133.0" x2="174.0" y2="146.1"/><line x1="107.0" y1="147.0" x2="93.9" y2="174.0"/><line x1="93.0" y1="107.0" x2="66.0" y2="93.9"/><line x1="133.0" y1="93.0" x2="146.1" y2="66.0"/><polyline points="158.1,177.0 178.1,186.1 171.6,165.1"/><polyline points="63.0,158.1 53.9,178.1 74.9,171.6"/><polyline points="81.9,63.0 61.9,53.9 68.4,74.9"/><polyline points="177.0,81.9 186.1,61.9 165.1,68.4"/><path d="M120 88 L146 120 L120 152 L94 120 Z M120 100 L120 140 M104 120 L136 120"/>
</g></svg>