<svg xmlns="http://www.w3.org/2000/svg" viewBox="0 0 240 240" role="img">
<title>Original simulator schematic for Cookpot Lid</title>
<path fill="#fffaf0" stroke="none" d="M0 0H240V240H0Z"/>
<g fill="none" stroke="#7d1f1a" stroke-width="2.2" stroke-linecap="round" stroke-linejoin="round" vector-effect="non-scaling-stroke">
<circle cx="120" cy="120" r="104"/><circle cx="120" cy="120" r="73"/><circle cx="120" cy="120" r="34"/>
<line x1="138.6" y1="143.5" x2="160.4" y2="170.9"/><line x1="103.4" y1="145.0" x2="84.1" y2="174.2"/><line x1="91.1" y1="111.9" x2="57.4" y2="102.6"/><line x1="118.7" y1="90.0" x2="117.2" y2="55.1"/><line x1="148.1" y1="109.5" x2="180.9" y2="97.3"/><polyline points="101.3,186.1 108.7,207.3 121.2,188.7"/><polyline points="53.9,101.3 32.7,108.7 51.3,121.2"/><polyline points="138.7,53.9 131.3,32.7 118.8,51.3"/><polyline points="186.1,138.7 207.3,131.3 188.7,118.8"/><path d="M101 140 C90 118 105 96 124 106 C144 116 136 143 116 139 C101 136 101 119 114 116 C126 113 132 125 125 132"/>
</g></svg>