<svg xmlns="http://www.w3.org/2000/svg" viewBox="0 0 240 240" role="img">
<title>Original simulator schematic for Enchanted Doorknob Seal</title>
<path fill="#fffaf0" stroke="none" d="M0 0H240V240H0Z"/>
<g fill="none" stroke="#7d1f1a" stroke-width="2.2" stroke-linecap="round" stroke-linejoin="round" vector-effect="non-scaling-stroke">
<circle cx="120" cy="120" r="104"/><circle cx="120" cy="120" r="73"/><circle cx="120" cy="120" r="34"/>
<line x1="115.8" y1="149.7" x2="111.0" y2="184.4"/><line x1="92.2" y1="131.2" x2="59.7" y2="144.4"/><line x1="96.4" y1="101.5" x2="68.8" y2="80.0"/><line x1="124.2" y1="90.3" x2="129.0" y2="55.6"/><line x1="147.8" y1="108.8" x2="180.3" y2="95.6"/><line x1="143.6" y1="138.5" x2="171.2" y2="160.0"/><polyline points="53.2,103.0 32.3,112.2 51.3,125.0"/><polyline points="84.8,60.8 63.5,52.5 67.9,74.9"/><polyline points="137.0,53.2 127.8,32.3 115.0,51.3"/><polyline points="179.2,84.8 187.5,63.5 165.1,67.9"/><polyline points="186.8,137.0 207.7,127.8 188.7,115.0"/><polyline points="155.2,179.2 176.5,187.5 172.1,165.1"/><polyline points="103.0,186.8 112.2,207.7 125.0,188.7"/><polyline points="60.8,155.2 52.5,176.5 74.9,172.1"/><polygon points="120,89 130,108 152,111 136,127 140,150 120,139 100,150 104,127 88,111 110,108"/>
</g></svg>