<svg xmlns="http://www.w3.org/2000/svg" viewBox="0 0 240 240" role="img">
<title>Original simulator schematic for Fish Guidance</title>
<path fill="#fffaf0" stroke="none" d="M0 0H240V240H0Z"/>
<g fill="none" stroke="#7d1f1a" stroke-width="2.2" stroke-linecap="round" stroke-linejoin="round" vector-effect="non-scaling-stroke">
<circle cx="120" cy="120" r="104"/><circle cx="120" cy="120" r="68"/><circle cx="120" cy="120" r="34"/>
<line x1="136.5" y1="145.1" x2="152.9" y2="170.2"/><line x1="106.5" y1="146.8" x2="93.0" y2="173.6"/><line x1="90.0" y1="121.7" x2="60.1" y2="123.4"/><line x1="103.5" y1="94.9" x2="87.1" y2="69.8"/><line x1="133.5" y1="93.2" x2="147.0" y2="66.4"/><line x1="150.0" y1="118.3" x2="179.9" y2="116.6"/><polyline points="89.4,181.7 94.1,204.1 110.5,188.2"/><polyline points="51.8,110.0 32.0,121.3 52.2,132.0"/><polyline points="108.4,52.1 91.6,36.7 87.6,59.2"/><polyline points="181.0,88.0 190.4,67.2 167.8,70.4"/><polyline points="169.3,168.1 192.0,170.7 181.9,150.1"/><polygon points="120,89 130,108 152,111 136,127 140,150 120,139 100,150 104,127 88,111 110,108"/>
</g></svg>