<svg xmlns="http://www.w3.org/2000/svg" viewBox="0 0 240 240" role="img">
<title>Original simulator schematic for Floating Drops</title>
<path fill="#fffaf0" stroke="none" d="M0 0H240V240H0Z"/>
<g fill="none" stroke="#7d1f1a" stroke-width="2.2" stroke-linecap="round" stroke-linejoin="round" vector-effect="non-scaling-stroke">
<circle cx="120" cy="120" r="104"/><circle cx="120" cy="120" r="78"/><circle cx="120" cy="120" r="34"/>
<line x1="145.7" y1="135.4" x2="180.0" y2="156.0"/><line x1="113.3" y1="149.2" x2="104.3" y2="188.2"/><line x1="90.1" y1="122.6" x2="50.3" y2="126.2"/><line x1="108.2" y1="92.4" x2="92.6" y2="55.6"/><line x1="142.6" y1="100.3" x2="172.8" y2="74.0"/><polyline points="147.1,183.2 166.1,195.0 164.1,172.7"/><polyline points="68.3,165.3 62.9,187.0 83.5,178.2"/><polyline points="61.0,84.8 38.7,86.4 53.3,103.3"/><polyline points="135.2,53.0 126.8,32.3 115.3,51.4"/><polyline points="188.4,113.8 205.5,99.4 183.8,94.3"/><path d="M101 140 C90 118 105 96 124 106 C144 116 136 143 116 139 C101 136 101 119 114 116 C126 113 132 125 125 132"/>
</g></svg>