<svg xmlns="http://www.w3.org/2000/svg" viewBox="0 0 240 240" role="img">
<title>Original simulator schematic for Illusory Labyrinth</title>
<path fill="#fffaf0" stroke="none" d="M0 0H240V240H0Z"/>
<g fill="none" stroke="#7d1f1a" stroke-width="2.2" stroke-linecap="round" stroke-linejoin="round" vector-effect="non-scaling-stroke">
<circle cx="120" cy="120" r="104"/><circle cx="120" cy="120" r="73"/><circle cx="120" cy="120" r="34"/>
<line x1="91.8" y1="130.3" x2="59.0" y2="142.4"/><line x1="97.0" y1="100.8" x2="70.1" y2="78.3"/><line x1="125.1" y1="90.4" x2="131.1" y2="56.0"/><line x1="148.2" y1="109.7" x2="181.0" y2="97.6"/><line x1="143.0" y1="139.2" x2="169.9" y2="161.7"/><line x1="114.9" y1="149.6" x2="108.9" y2="184.0"/><polyline points="165.3,68.1 166.6,45.3 146.6,56.5"/><polyline points="183.3,147.1 205.4,141.2 188.6,125.7"/><polyline points="113.8,188.6 126.2,207.8 135.8,187.1"/><polyline points="52.8,135.3 38.4,153.0 61.1,155.7"/><polyline points="84.7,60.9 63.4,52.6 67.8,75.0"/><polygon points="120,89 130,108 152,111 136,127 140,150 120,139 100,150 104,127 88,111 110,108"/>
</g></svg>