<svg xmlns="http://www.w3.org/2000/svg" viewBox="0 0 240 240" role="img">
<title>Original simulator schematic for Makeover Mask Spell</title>
<path fill="#fffaf0" stroke="none" d="M0 0H240V240H0Z"/>
<g fill="none" stroke="#7d1f1a" stroke-width="2.2" stroke-linecap="round" stroke-linejoin="round" vector-effect="non-scaling-stroke">
<circle cx="120" cy="120" r="104"/><circle cx="120" cy="120" r="78"/><circle cx="120" cy="120" r="34"/>
<line x1="148.9" y1="128.0" x2="187.5" y2="138.7"/><line x1="127.5" y1="149.0" x2="137.6" y2="187.8"/><line x1="98.6" y1="141.0" x2="70.1" y2="169.1"/><line x1="91.1" y1="112.0" x2="52.5" y2="101.3"/><line x1="112.5" y1="91.0" x2="102.4" y2="52.2"/><line x1="141.4" y1="99.0" x2="169.9" y2="70.9"/><polyline points="174.0,162.8 196.8,163.0 184.7,143.6"/><polyline points="120.2,188.9 134.3,206.8 141.9,185.3"/><polyline points="66.3,163.1 61.0,185.3 82.6,177.8"/><polyline points="52.8,104.9 32.2,114.6 51.5,126.8"/><polyline points="89.9,58.0 69.4,48.0 71.9,70.7"/><polyline points="149.7,57.9 144.8,35.6 128.6,51.7"/><polyline points="187.1,104.5 201.5,86.7 178.8,84.1"/><polygon points="120,89 130,108 152,111 136,127 140,150 120,139 100,150 104,127 88,111 110,108"/>
</g></svg>