<svg xmlns="http://www.w3.org/2000/svg" viewBox="0 0 240 240" role="img">
<title>Original simulator schematic for Mirror Spell</title>
<path fill="#fffaf0" stroke="none" d="M0 0H240V240H0Z"/>
<g fill="none" stroke="#7d1f1a" stroke-width="2.2" stroke-linecap="round" stroke-linejoin="round" vector-effect="non-scaling-stroke">
<circle cx="120" cy="120" r="104"/><circle cx="120" cy="120" r="68"/><circle cx="120" cy="120" r="34"/>
<line x1="129.2" y1="148.6" x2="138.3" y2="177.1"/><line x1="95.7" y1="137.6" x2="71.3" y2="155.1"/><line x1="95.8" y1="102.3" x2="71.6" y2="84.6"/><line x1="129.4" y1="91.5" x2="138.7" y2="63.0"/><line x1="150.0" y1="120.1" x2="180.0" y2="120.2"/><polyline points="63.9,159.7 56.3,180.7 77.7,174.2"/><polyline points="52.3,108.4 32.0,117.9 51.8,128.4"/><polyline points="80.3,63.9 59.3,56.3 65.8,77.7"/><polyline points="131.6,52.3 122.1,32.0 111.6,51.8"/><polyline points="176.1,80.3 183.7,59.3 162.3,65.8"/><polyline points="187.7,131.6 208.0,122.1 188.2,111.6"/><polyline points="159.7,176.1 180.7,183.7 174.2,162.3"/><polyline points="108.4,187.7 117.9,208.0 128.4,188.2"/><path d="M101 140 C90 118 105 96 124 106 C144 116 136 143 116 139 C101 136 101 119 114 116 C126 113 132 125 125 132"/>
</g></svg>