<svg xmlns="http://www.w3.org/2000/svg" viewBox="0 0 240 240" role="img">
<title>Original simulator schematic for Owlcat Projection</title>
<path fill="#fffaf0" stroke="none" d="M0 0H240V240H0Z"/>
<g fill="none" stroke="#7d1f1a" stroke-width="2.2" stroke-linecap="round" stroke-linejoin="round" vector-effect="non-scaling-stroke">
<circle cx="120" cy="120" r="104"/><circle cx="120" cy="120" r="68"/><circle cx="120" cy="120" r="34"/>
<line x1="99.1" y1="141.6" x2="78.3" y2="163.1"/><line x1="93.1" y1="106.8" x2="66.1" y2="93.6"/><line x1="124.2" y1="90.3" x2="128.4" y2="60.6"/><line x1="149.6" y1="114.8" x2="179.1" y2="109.7"/><line x1="134.1" y1="146.5" x2="148.1" y2="173.0"/><polyline points="110.0,52.0 94.6,35.7 90.8,57.8"/><polyline points="181.6,89.5 192.3,69.8 170.2,73.0"/><polyline points="168.1,169.1 190.1,173.3 180.2,153.2"/><polyline points="88.1,180.9 91.0,203.1 107.0,187.5"/><polyline points="52.2,108.5 32.0,118.1 51.8,128.5"/><path d="M101 140 C90 118 105 96 124 106 C144 116 136 143 116 139 C101 136 101 119 114 116 C126 113 132 125 125 132"/>
</g></svg>