<svg xmlns="http://www.w3.org/2000/svg" viewBox="0 0 240 240" role="img">
<title>Original simulator schematic for Rain Guard</title>
<path fill="#fffaf0" stroke="none" d="M0 0H240V240H0Z"/>
<g fill="none" stroke="#7d1f1a" stroke-width="2.2" stroke-linecap="round" stroke-linejoin="round" vector-effect="non-scaling-stroke">
<circle cx="120" cy="120" r="104"/><circle cx="120" cy="120" r="78"/><circle cx="120" cy="120" r="34"/>
<line x1="97.3" y1="139.6" x2="67.0" y2="165.7"/><line x1="91.7" y1="110.1" x2="53.9" y2="96.9"/><line x1="114.4" y1="90.5" x2="106.9" y2="51.2"/><line x1="142.7" y1="100.4" x2="173.0" y2="74.3"/><line x1="148.3" y1="129.9" x2="186.1" y2="143.1"/><line x1="125.6" y1="149.5" x2="133.1" y2="188.8"/><polyline points="122.6,51.2 109.3,32.7 100.8,53.9"/><polyline points="180.9,87.8 190.3,67.0 167.7,70.3"/><polyline points="178.3,156.7 201.0,154.4 186.9,136.4"/><polyline points="117.4,188.8 130.7,207.3 139.2,186.1"/><polyline points="59.1,152.2 49.7,173.0 72.3,169.7"/><polyline points="61.7,83.3 39.0,85.6 53.1,103.6"/><polygon points="120,89 130,108 152,111 136,127 140,150 120,139 100,150 104,127 88,111 110,108"/>
</g></svg>