<svg xmlns="http://www.w3.org/2000/svg" viewBox="0 0 240 240" role="img">
<title>Original simulator schematic for Scalewolf Curse</title>
<path fill="#fffaf0" stroke="none" d="M0 0H240V240H0Z"/>
<g fill="none" stroke="#7d1f1a" stroke-width="2.2" stroke-linecap="round" stroke-linejoin="round" vector-effect="non-scaling-stroke">
<circle cx="120" cy="120" r="104"/><circle cx="120" cy="120" r="78"/><circle cx="120" cy="120" r="34"/>
<line x1="92.9" y1="132.8" x2="56.7" y2="149.9"/><line x1="99.4" y1="98.2" x2="72.0" y2="69.1"/><line x1="134.4" y1="93.7" x2="153.6" y2="58.6"/><line x1="149.5" y1="125.6" x2="188.8" y2="133.0"/><line x1="123.8" y1="149.8" x2="128.9" y2="189.4"/><polyline points="155.0,60.8 153.3,38.5 136.4,53.3"/><polyline points="179.2,155.0 201.5,153.3 186.7,136.4"/><polyline points="85.0,179.2 86.7,201.5 103.6,186.7"/><polyline points="60.8,85.0 38.5,86.7 53.3,103.6"/><path d="M101 140 C90 118 105 96 124 106 C144 116 136 143 116 139 C101 136 101 119 114 116 C126 113 132 125 125 132"/>
</g></svg>